<svg width="94" height="94" viewBox="0 0 94 94" fill="none" xmlns="http://www.w3.org/2000/svg">
<g id="image 111" clip-path="url(#clip0_207_2192)">
<path id="Vector" d="M93.335 22.8677V71.1328C93.335 77.0025 88.586 81.7515 82.7164 81.7515H11.2837C10.3179 81.7515 9.39174 81.6356 8.5419 81.3655C3.98589 80.1685 0.665039 76.0367 0.665039 71.1328V22.8677C0.665039 16.998 5.41407 12.249 11.2837 12.249H82.7164C88.586 12.249 93.335 16.998 93.335 22.8677Z" fill="#ECEFF1"/>
<path id="Vector_2" d="M27.6938 31.5557C27.6938 35.8205 24.2365 39.2778 19.9718 39.2778C15.7063 39.2778 12.249 35.8205 12.249 31.5557C12.249 27.2903 15.7063 23.833 19.9718 23.833C24.2365 23.833 27.6938 27.2903 27.6938 31.5557Z" fill="#FFC107"/>
<path id="Vector_3" d="M93.3351 62.2139V71.1329C93.3351 77.0026 88.5861 81.7516 82.7164 81.7516H11.2838C10.318 81.7516 9.39183 81.6357 8.54199 81.3656L55.7268 34.1808C58.352 31.5556 62.6768 31.5556 65.3026 34.1808L93.3351 62.2139Z" fill="#388E3C"/>
<path id="Vector_4" d="M66.5377 81.7512H11.2837C10.3179 81.7512 9.39174 81.6353 8.54191 81.3652C3.98589 80.1682 0.665039 76.0364 0.665039 71.1326V69.9356L22.9056 47.695C25.5315 45.0691 29.8563 45.0691 32.4815 47.695L66.5377 81.7512Z" fill="#4CAF50"/>
</g>
<defs>
<clipPath id="clip0_207_2192">
<rect width="92.67" height="92.67" fill="white" transform="translate(0.665039 0.665039)"/>
</clipPath>
</defs>
</svg>
