<svg width="94" height="94" viewBox="0 0 94 94" fill="none" xmlns="http://www.w3.org/2000/svg">
<g id="youtube 1" clip-path="url(#clip0_207_2521)">
<g id="Group">
<path id="Vector" d="M73.967 0.665039H20.0331C9.33604 0.665039 0.665039 9.33604 0.665039 20.0331V73.967C0.665039 84.664 9.33604 93.335 20.0331 93.335H73.967C84.664 93.335 93.335 84.664 93.335 73.967V20.0331C93.335 9.33604 84.664 0.665039 73.967 0.665039ZM16.6552 86.4538C16.6552 87.1425 16.0955 87.7022 15.4068 87.7022H10.4535C9.76487 87.7022 9.20522 87.1425 9.20522 86.4538V81.5005C9.20522 80.8119 9.76487 80.2522 10.4535 80.2522H15.4068C16.0955 80.2522 16.6552 80.8119 16.6552 81.5005V86.4538ZM16.6552 12.4995C16.6552 13.1882 16.0955 13.7479 15.4068 13.7479H10.4535C9.76487 13.7479 9.20522 13.1882 9.20522 12.4995V7.54624C9.20522 6.85757 9.76487 6.29792 10.4535 6.29792H15.4068C16.0955 6.29792 16.6552 6.85757 16.6552 7.54624V12.4995ZM30.2831 86.4538C30.2831 87.1425 29.7234 87.7022 29.0348 87.7022H24.0815C23.3928 87.7022 22.8332 87.1425 22.8332 86.4538V81.5005C22.8332 80.8119 23.3928 80.2522 24.0815 80.2522H29.0348C29.7234 80.2522 30.2831 80.8119 30.2831 81.5005V86.4538ZM30.2831 12.4995C30.2831 13.1882 29.7234 13.7479 29.0348 13.7479H24.0815C23.3928 13.7479 22.8332 13.1882 22.8332 12.4995V7.54624C22.8332 6.85757 23.3928 6.29792 24.0815 6.29792H29.0348C29.7234 6.29792 30.2831 6.85757 30.2831 7.54624V12.4995ZM43.911 86.4538C43.911 87.1425 43.3514 87.7022 42.6627 87.7022H37.7094C37.0208 87.7022 36.4611 87.1425 36.4611 86.4538V81.5005C36.4611 80.8119 37.0208 80.2522 37.7094 80.2522H42.6627C43.3514 80.2522 43.911 80.8119 43.911 81.5005V86.4538ZM43.911 12.4995C43.911 13.1882 43.3514 13.7479 42.6627 13.7479H37.7094C37.0208 13.7479 36.4611 13.1882 36.4611 12.4995V7.54624C36.4611 6.85757 37.0208 6.29792 37.7094 6.29792H42.6627C43.3514 6.29792 43.911 6.85757 43.911 7.54624V12.4995ZM57.539 86.4538C57.539 87.1425 56.9793 87.7022 56.2907 87.7022H51.3374C50.6487 87.7022 50.089 87.1425 50.089 86.4538V81.5005C50.089 80.8119 50.6487 80.2522 51.3374 80.2522H56.2907C56.9793 80.2522 57.539 80.8119 57.539 81.5005V86.4538ZM57.539 12.4995C57.539 13.1882 56.9793 13.7479 56.2907 13.7479H51.3374C50.6487 13.7479 50.089 13.1882 50.089 12.4995V7.54624C50.089 6.85757 50.6487 6.29792 51.3374 6.29792H56.2907C56.9793 6.29792 57.539 6.85757 57.539 7.54624V12.4995ZM71.1669 86.4538C71.1669 87.1425 70.6073 87.7022 69.9186 87.7022H64.9653C64.2766 87.7022 63.717 87.1425 63.717 86.4538V81.5005C63.717 80.8119 64.2766 80.2522 64.9653 80.2522H69.9186C70.6073 80.2522 71.1669 80.8119 71.1669 81.5005V86.4538ZM71.1669 12.4995C71.1669 13.1882 70.6073 13.7479 69.9186 13.7479H64.9653C64.2766 13.7479 63.717 13.1882 63.717 12.4995V7.54624C63.717 6.85757 64.2766 6.29792 64.9653 6.29792H69.9186C70.6073 6.29792 71.1669 6.85757 71.1669 7.54624V12.4995ZM84.7949 86.4538C84.7949 87.1425 84.2352 87.7022 83.5465 87.7022H78.5932C77.9046 87.7022 77.3449 87.1425 77.3449 86.4538V81.5005C77.3449 80.8119 77.9046 80.2522 78.5932 80.2522H83.5465C84.2352 80.2522 84.7949 80.8119 84.7949 81.5005V86.4538ZM84.7949 12.4995C84.7949 13.1882 84.2352 13.7479 83.5465 13.7479H78.5932C77.9046 13.7479 77.3449 13.1882 77.3449 12.4995V7.54624C77.3449 6.85757 77.9046 6.29792 78.5932 6.29792H83.5465C84.2352 6.29792 84.7949 6.85757 84.7949 7.54624V12.4995Z" fill="#DDA34E"/>
<path id="Vector_2" d="M35.8575 77.2237C28.1481 77.2236 21.876 70.9516 21.876 63.2426V30.7575C21.876 23.0483 28.1481 16.7764 35.8575 16.7764C38.2755 16.7764 40.684 17.4291 42.8228 18.6639L70.9562 34.9064C75.3282 37.4307 77.9386 41.9517 77.9386 47.0001C77.9386 52.0484 75.3282 56.5696 70.9562 59.0937L42.8228 75.3362C40.6842 76.5709 38.2755 77.2237 35.8577 77.2237C35.8577 77.2237 35.8577 77.2237 35.8575 77.2237Z" fill="url(#paint0_linear_207_2521)"/>
<path id="Vector_3" d="M68.5892 37.739L41.5554 22.1312C34.4265 18.0154 25.5156 23.1602 25.5156 31.3918V62.6073C25.5156 70.8389 34.4267 75.9837 41.5554 71.8679L68.5892 56.2601C75.7181 52.1445 75.7181 41.8548 68.5892 37.739Z" fill="url(#paint1_linear_207_2521)"/>
<path id="Vector_4" d="M68.5892 37.739L41.5554 22.1312C34.4265 18.0154 25.5156 23.1602 25.5156 31.3918V62.6073C25.5156 70.8389 34.4267 75.9837 41.5554 71.8679L68.5892 56.2601C75.7181 52.1445 75.7181 41.8548 68.5892 37.739Z" fill="url(#paint2_linear_207_2521)"/>
</g>
</g>
<defs>
<linearGradient id="paint0_linear_207_2521" x1="49.9074" y1="73.2845" x2="49.9074" y2="23.1724" gradientUnits="userSpaceOnUse">
<stop stop-color="#DDA34E"/>
<stop offset="1" stop-color="#DDA34E"/>
</linearGradient>
<linearGradient id="paint1_linear_207_2521" x1="32.9243" y1="37.9988" x2="55.9603" y2="61.0346" gradientUnits="userSpaceOnUse">
<stop stop-color="#EEF4FF"/>
<stop offset="1" stop-color="#CFE7FD"/>
</linearGradient>
<linearGradient id="paint2_linear_207_2521" x1="50" y1="55.5" x2="54.6725" y2="63.9368" gradientUnits="userSpaceOnUse">
<stop stop-color="#8AAADC" stop-opacity="0"/>
<stop offset="1" stop-color="#A3C0EC"/>
</linearGradient>
<clipPath id="clip0_207_2521">
<rect width="92.67" height="92.67" fill="white" transform="translate(0.665039 0.665039)"/>
</clipPath>
</defs>
</svg>
